/* XPM */
static char *bits_new[] = {
/* width height colors chars-per-pixel */
"16 16 134 2",
"   c None",
"!  c #239f06",
"#  c #9e5e0b",
"$  c #23a107",
"%  c #22a60a",
"&  c #21a608",
"'  c #b48e19",
"(  c #b48f19",
")  c #b49019",
"*  c #b18c18",
"+  c #1cc519",
",  c #02ff26",
"-  c #10d011",
".  c #dbb84e",
"/  c #b38e1b",
"0  c #deb12d",
"1  c #e2b82d",
"2  c #e4bc2d",
"3  c #e5bf2d",
"4  c #b38e19",
"5  c #7c9612",
"6  c #29be14",
"7  c #00f91a",
"8  c #1ac60e",
"9  c #339d08",
":  c #d8b747",
";  c #af8a18",
"<  c #f1b939",
"=  c #f4c139",
">  c #f0c034",
"@  c #f3c634",
"A  c #f4cb33",
"B  c #56ac14",
"C  c #4aa90f",
"D  c #2dc612",
"E  c #00ee14",
"F  c #12db12",
"G  c #3f9c0a",
"H  c #2a9d07",
"I  c #dbbc48",
"J  c #ebae3d",
"K  c #b67d1d",
"L  c #b2771c",
"M  c #b2761c",
"N  c #928117",
"O  c #3aab14",
"P  c #08f423",
"Q  c #06ef18",
"R  c #0ce113",
"S  c #19d514",
"T  c #23c712",
"U  c #23c412",
"V  c #2cac0c",
"W  c #dcbd48",
"X  c #d6a03c",
"Y  c #c2922a",
"Z  c #fce651",
"[  c #fbe95d",
"]  c #cada6a",
"^  c #44c02a",
"_  c #20cc13",
"`  c #20c912",
"a  c #20c610",
"b  c #2eaa0b",
"c  c #b5911f",
"d  c #b28c1b",
"e  c #c89740",
"f  c #d0a434",
"g  c #fce04c",
"h  c #fce44d",
"i  c #4aae17",
"j  c #4ab220",
"k  c #4bb226",
"l  c #37bf1e",
"m  c #23c613",
"n  c #4cb025",
"o  c #45a81c",
"p  c #339a09",
"q  c #b38c1b",
"r  c #c09143",
"s  c #daab3d",
"t  c #fad34d",
"u  c #fcda4b",
"v  c #eae04b",
"w  c #b6d141",
"x  c #42ba1e",
"y  c #34b919",
"z  c #a0cb64",
"{  c #bca450",
"|  c #91660b",
"}  c #ba893a",
"~  c #e5b144",
" ! c #f8c84e",
"!! c #f8ce4d",
"#! c #b7ce36",
"$! c #43b815",
"%! c #24c311",
"&! c #34b816",
"'! c #b6802e",
"(! c #b27e2d",
")! c #f2be4b",
"*! c #f8c44e",
"+! c #57b117",
",! c #51af15",
"-! c #51af16",
".! c #ebe356",
"/! c #a3650e",
"0! c #b69124",
"1! c #b4802e",
"2! c #e7c640",
"3! c #ae7518",
"4! c #000000",
"5! c #be9937",
"6! c #c18e38",
"7! c #ae761c",
"8! c #bba34a",
"9! c #a66f1e",
":! c #ab7523",
";! c #ac7623",
"<! c #ad7623",
"=! c #ad7723",
">! c #ad7722",
"@! c #ac7620",
"A! c #5a522c",
"B! c #0e0901",
"C! c #3e2504",
"D! c #402604",
"E! c #442905",
"F! c #452905",
"G! c #482b05",
"H! c #4c2d05",
"I! c #523105",
"J! c #573406",
"K! c #492c05",
/* pixels */
"                    ! ! !       ",
"# # # # # # # # # ! $ % & ! # # ",
"#   ' ( ( ) * # # ! + , - ! # # ",
". / 0 1 2 3 4 ) ) 5 6 7 8 9 # # ",
": ; < = > @ A B C C D E F G H $ ",
"I ; J K L M N O P Q E R S T U V ",
"W ; X Y Z [ ] ^ 7 E R S _ ` a b ",
"c d e f g h Z i j k l _ m n o p ",
"  q r s t u g h v w x ` y z { | ",
"  q } ~  !!!t u g #!$!%!&!z '!# ",
"  q (!)!*!*! !!!t u +!,!-!.!/!# ",
"  0!1!*!*!*!*!*! !!!t u g 2!3!# ",
"4!5!6!*!*!*!*!*!*!*! !!!t f 7!# ",
"4!8!9!:!;!<!<!<!=!=!<!<!>!@!A!# ",
"4!4!B!C!D!E!F!F!G!H!I!J!K!4!4!# ",
"# # # # # # # # # # # # # # # # "
};
