/* XPM */
static char *bits_up[] = {
/* width height colors chars-per-pixel */
"16 16 136 2",
"   c None",
"!  c #6db320",
"#  c #6eb421",
"$  c #6ab31f",
"%  c #79c424",
"&  c #7bc625",
"'  c #71b823",
"(  c #409104",
")  c #e4b18e",
"*  c #eecdb6",
"+  c #eabfa3",
",  c #eac1a5",
"-  c #e9bfa2",
".  c #eeccb6",
"/  c #f6bfae",
"0  c #438500",
"1  c #6fb31a",
"2  c #71c419",
"3  c #72c519",
"4  c #74b91e",
"5  c #4fa201",
"6  c #eeceb9",
"7  c #fbf7f3",
"8  c #edc9b1",
"9  c #efd0bb",
":  c #ecc9b1",
";  c #f6e8de",
"<  c #faf2ed",
"=  c #f6dcce",
">  c #bcd18c",
"@  c #6cc713",
"A  c #71ca19",
"B  c #b4cb7c",
"C  c #ffcac6",
"D  c #ecccb6",
"E  c #fdffff",
"F  c #fcffff",
"G  c #f4f1f1",
"H  c #b9c38c",
"I  c #7aac1a",
"J  c #85b126",
"K  c #bec78e",
"L  c #e0b3a1",
"M  c #641100",
"N  c #edceba",
"O  c #e7e1dc",
"P  c #d8c9bb",
"Q  c #d9cabe",
"R  c #dacbbf",
"S  c #d9cbc0",
"T  c #d8c6b9",
"U  c #deb68a",
"V  c #f1be83",
"W  c #f3bb85",
"X  c #f3bd81",
"Y  c #efbe7d",
"Z  c #c58540",
"[  c #d8b098",
"]  c #dfb98d",
"^  c #f3be7f",
"_  c #f0b879",
"`  c #f0b87a",
"a  c #efb87a",
"b  c #efb779",
"c  c #fbbd79",
"d  c #fab067",
"e  c #fab068",
"f  c #fab169",
"g  c #f9b067",
"h  c #fcb76c",
"i  c #ca8236",
"j  c #d2a990",
"k  c #e6b580",
"l  c #fdb065",
"m  c #f9aa60",
"n  c #f9ab62",
"o  c #f9ad64",
"p  c #f9ac63",
"q  c #f7a85e",
"r  c #f6a65a",
"s  c #f6a355",
"t  c #f6a151",
"u  c #f5a04f",
"v  c #f9a850",
"w  c #c6761f",
"x  c #d0a991",
"y  c #e3b07c",
"z  c #fbac65",
"{  c #f6a760",
"|  c #f6a359",
"}  c #f59b4c",
"~  c #f49540",
" ! c #f49037",
"!! c #f38e33",
"#! c #f38d31",
"$! c #f38d30",
"%! c #f38b30",
"&! c #f79734",
"'! c #c36a08",
"(! c #cea992",
")! c #e0aa73",
"*! c #f99c4c",
"+! c #f38c37",
",! c #f3862d",
"-! c #f28429",
".! c #f2852a",
"/! c #f2852c",
"0! c #f2862d",
"1! c #f2852d",
"2! c #f69031",
"3! c #c06408",
"4! c #ccaa96",
"5! c #e1a25f",
"6! c #fd9034",
"7! c #f7872e",
"8! c #f78a31",
"9! c #f78a32",
":! c #f78932",
";! c #fa9535",
"<! c #c06508",
"=! c #cca28a",
">! c #cb8638",
"@! c #dd7a1c",
"A! c #d8741a",
"B! c #d8751a",
"C! c #d9751b",
"D! c #d97a18",
"E! c #b15803",
"F! c #f06403",
"G! c #601400",
"H! c #330100",
"I! c #3a0a00",
"J! c #3a0900",
"K! c #3c0b00",
"L! c #1c0000",
"M! c #ffff00",
/* pixels */
"                                ",
"                                ",
"                    ! #         ",
"                  $ % & ' (     ",
"  ) * + , - . / 0 1 2 3 4 5     ",
"  6 7 8 9 : ; < = > @ A B C     ",
"  D E E F E F   G H I J K L M   ",
"  N O P Q R S T U V W W X Y Z   ",
"  [ ] ^ _ ` a b c d e f g h i   ",
"  j k l m n o p q r s t u v w   ",
"  x y z { | } ~  !!!#!$!%!&!'!  ",
"  (!)!*!+!,!-!.!/!0!0!0!1!2!3!  ",
"  4!5!6!7!8!9!9!9!9!9!9!:!;!<!  ",
"  =!>!@!A!B!B!B!B!B!B!B!C!D!E!  ",
"  F!G!H!I!J!J!J!J!J!J!J!K!L!M!  ",
"                                "
};
